<svg xmlns="http://www.w3.org/2000/svg" style="display:none">
<defs>
  <linearGradient id="gBlue" x1="0" x2="1" y1="0" y2="1"><stop stop-color="#3EA4F5"/><stop offset="1" stop-color="#0B64C6"/></linearGradient>
  <linearGradient id="gGreen" x1="0" x2="1" y1="0" y2="1"><stop stop-color="#58D58E"/><stop offset="1" stop-color="#069563"/></linearGradient>
  <linearGradient id="gOrange" x1="0" x2="1" y1="0" y2="1"><stop stop-color="#FFB84B"/><stop offset="1" stop-color="#F06B2D"/></linearGradient>
  <linearGradient id="gPurple" x1="0" x2="1" y1="0" y2="1"><stop stop-color="#A783F2"/><stop offset="1" stop-color="#6241C7"/></linearGradient>
  <linearGradient id="gGold" x1="0" x2="1" y1="0" y2="1"><stop stop-color="#FFD65B"/><stop offset="1" stop-color="#F1A008"/></linearGradient>
  <linearGradient id="gPink" x1="0" x2="1" y1="0" y2="1"><stop stop-color="#FF8FA1"/><stop offset="1" stop-color="#E84062"/></linearGradient>
  <filter id="iconShadow" x="-30%" y="-30%" width="160%" height="170%"><feDropShadow dx="0" dy="4" stdDeviation="4" flood-color="#173B78" flood-opacity=".18"/></filter>
</defs>

<symbol id="year-k" viewBox="0 0 80 80"><g filter="url(#iconShadow)"><path d="M39 66V39" stroke="#137A4D" stroke-width="5" stroke-linecap="round"/><path d="M38 43C22 43 12 34 13 19c17-1 26 7 25 24Z" fill="url(#gGreen)"/><path d="M43 39c16 0 27-9 28-24-17-1-27 8-28 24Z" fill="#2EBB77"/><ellipse cx="39" cy="67" rx="20" ry="6" fill="#B16D38"/></g></symbol>
<symbol id="year-1" viewBox="0 0 80 80"><g filter="url(#iconShadow)"><path d="M40 65V40" stroke="#B64C22" stroke-width="5" stroke-linecap="round"/><path d="M39 44C24 44 15 35 16 20c16-1 25 7 23 24Z" fill="url(#gOrange)"/><path d="M43 39c15 0 24-8 25-22-16-1-25 7-25 22Z" fill="#FF9556"/><ellipse cx="40" cy="67" rx="20" ry="6" fill="#B16D38"/></g></symbol>
<symbol id="year-2" viewBox="0 0 80 80"><g filter="url(#iconShadow)"><path d="M40 64V39" stroke="#116AAB" stroke-width="5" stroke-linecap="round"/><path d="M38 43C24 43 15 35 14 21c15-2 24 6 24 22Z" fill="url(#gBlue)"/><path d="M43 39c15 0 24-8 25-22-15-1-25 7-25 22Z" fill="url(#gGreen)"/><path d="M25 59h30l-4 11H29Z" fill="#39A9E7"/></g></symbol>
<symbol id="year-3" viewBox="0 0 80 80"><g filter="url(#iconShadow)"><circle cx="40" cy="40" r="17" fill="url(#gGold)"/><circle cx="35" cy="34" r="5" fill="#fff" opacity=".55"/><g stroke="#F3A000" stroke-width="4" stroke-linecap="round"><path d="M40 8v9M40 63v9M8 40h9M63 40h9M18 18l7 7M55 55l7 7M62 18l-7 7M25 55l-7 7"/></g></g></symbol>
<symbol id="year-4" viewBox="0 0 80 80"><g filter="url(#iconShadow)"><path d="M49 12c9 5 15 12 19 20-9 8-17 14-26 17l-10-10c4-10 9-19 17-27Z" fill="url(#gBlue)"/><circle cx="53" cy="28" r="7" fill="#E9F7FF"/><circle cx="53" cy="28" r="3" fill="#76BDF1"/><path d="M33 39 19 41l-7 11 18 1ZM43 49l-2 15 11-6 4-15Z" fill="url(#gPurple)"/><path d="m29 52-10 13M35 56l-6 11" stroke="#FF9C1A" stroke-width="5" stroke-linecap="round"/></g></symbol>
<symbol id="year-5" viewBox="0 0 80 80"><g filter="url(#iconShadow)"><path d="M14 65h52L48 31 36 48 29 40Z" fill="url(#gPurple)"/><path d="M36 48 48 31l8 14-9 2-5 9Z" fill="#B09AF5"/><path d="M49 31V11" stroke="#173B78" stroke-width="4"/><path d="M51 12h17l-5 7 5 6H51Z" fill="url(#gPink)"/></g></symbol>
<symbol id="year-6" viewBox="0 0 80 80"><g filter="url(#iconShadow)"><path d="M24 18h32v13c0 14-6 22-16 26-10-4-16-12-16-26Z" fill="url(#gGold)"/><path d="M24 24H14c0 12 5 18 15 19M56 24h10c0 12-5 18-15 19" fill="none" stroke="#DF9400" stroke-width="5" stroke-linecap="round"/><rect x="35" y="55" width="10" height="9" rx="2" fill="#D58B00"/><rect x="27" y="63" width="26" height="6" rx="3" fill="#A96500"/></g></symbol>

<symbol id="maths" viewBox="0 0 80 80"><g filter="url(#iconShadow)"><rect x="15" y="10" width="50" height="60" rx="12" fill="url(#gBlue)"/><rect x="22" y="18" width="36" height="13" rx="4" fill="#BFE9FF"/><g fill="#fff"><rect x="22" y="39" width="9" height="9" rx="2"/><rect x="36" y="39" width="9" height="9" rx="2"/><rect x="50" y="39" width="9" height="9" rx="2"/><rect x="22" y="53" width="9" height="9" rx="2"/><rect x="36" y="53" width="9" height="9" rx="2"/><rect x="50" y="53" width="9" height="9" rx="2"/></g><rect x="50" y="39" width="9" height="9" rx="2" fill="#FFD34D"/><rect x="50" y="53" width="9" height="9" rx="2" fill="#FFD34D"/></g></symbol>
<symbol id="english" viewBox="0 0 80 80"><g filter="url(#iconShadow)"><path d="M12 18c11-6 21-5 28 2v45c-8-6-18-8-28-3Z" fill="#fff" stroke="#238FE0" stroke-width="3"/><path d="M68 18c-11-6-21-5-28 2v45c8-6 18-8 28-3Z" fill="#fff" stroke="#238FE0" stroke-width="3"/><path d="M21 31h11M21 40h11M48 31h11M48 40h11" stroke="#7CC8F3" stroke-width="3" stroke-linecap="round"/></g></symbol>
<symbol id="vocab" viewBox="0 0 80 80"><g filter="url(#iconShadow)"><circle cx="40" cy="40" r="31" fill="#BEEFD9"/><text x="40" y="50" text-anchor="middle" font-family="Arial,sans-serif" font-size="31" font-weight="800" fill="#0B9363">Aa</text></g></symbol>
<symbol id="thinking" viewBox="0 0 80 80"><g filter="url(#iconShadow)"><circle cx="40" cy="33" r="20" fill="url(#gGold)"/><ellipse cx="34" cy="26" rx="5" ry="8" fill="#fff" opacity=".5"/><path d="M31 34c6-10 13-10 19 0M34 35l3 16M47 35l-3 16" fill="none" stroke="#E78D00" stroke-width="4" stroke-linecap="round"/><rect x="31" y="51" width="18" height="12" rx="4" fill="#2050A0"/><g stroke="#F3A000" stroke-width="4" stroke-linecap="round"><path d="M40 4v8M16 14l6 6M64 14l-6 6M8 37h8M64 37h8"/></g></g></symbol>

<symbol id="reading" viewBox="0 0 80 80"><g filter="url(#iconShadow)"><path d="M13 18c11-6 21-5 27 2v45c-8-6-17-7-27-3Z" fill="#fff" stroke="#E85F7C" stroke-width="3"/><path d="M67 18c-11-6-21-5-27 2v45c8-6 17-7 27-3Z" fill="#fff" stroke="#E85F7C" stroke-width="3"/></g></symbol>
<symbol id="science" viewBox="0 0 80 80"><g filter="url(#iconShadow)"><circle cx="40" cy="40" r="31" fill="#EEE8FF"/><path d="M31 13h18M35 13v18L22 60a5 5 0 0 0 5 7h26a5 5 0 0 0 5-7L45 31V13" fill="#fff" stroke="#7B4DE4" stroke-width="4" stroke-linejoin="round"/><path d="M28 53h24" stroke="#36B9EE" stroke-width="7" stroke-linecap="round"/><circle cx="36" cy="44" r="3" fill="#36B9EE"/><circle cx="46" cy="49" r="2.5" fill="#36B9EE"/></g></symbol>
<symbol id="gk" viewBox="0 0 80 80"><g filter="url(#iconShadow)"><circle cx="40" cy="40" r="30" fill="url(#gBlue)"/><path d="M26 20l10-5 7 7 9 1 5 9-7 5-4 14-9-2-4-8-9-4Z" fill="#56C978"/><path d="M18 48c8 8 21 13 34 10" fill="none" stroke="#DDF7FF" stroke-width="3" stroke-linecap="round"/></g></symbol>

<symbol id="naplan" viewBox="0 0 80 80"><g filter="url(#iconShadow)"><path d="M19 11h36l9 10v48H19Z" fill="url(#gBlue)"/><path d="M55 11v12h10" fill="#8FD4FA"/><path d="M29 33h25M29 43h25M29 53h18" stroke="#fff" stroke-width="4" stroke-linecap="round"/></g></symbol>
<symbol id="oc" viewBox="0 0 80 80"><g filter="url(#iconShadow)"><circle cx="40" cy="40" r="31" fill="#FFF0C8"/><circle cx="31" cy="32" r="9" fill="#15A76D"/><circle cx="50" cy="32" r="9" fill="#1B8DDA"/><circle cx="40" cy="25" r="10" fill="#16B978"/><path d="M15 62c1-12 7-19 16-19s15 7 16 19M34 62c1-12 7-19 16-19s15 7 16 19" fill="url(#gBlue)" opacity=".95"/></g></symbol>
<symbol id="selective" viewBox="0 0 80 80"><g filter="url(#iconShadow)"><circle cx="40" cy="40" r="31" fill="#DDF5E8"/><rect x="20" y="47" width="10" height="16" rx="3" fill="#0D65C6"/><rect x="35" y="36" width="10" height="27" rx="3" fill="#1B8DDA"/><rect x="50" y="21" width="10" height="42" rx="3" fill="#26B6C8"/></g></symbol>

<symbol id="target" viewBox="0 0 80 80"><g filter="url(#iconShadow)"><circle cx="40" cy="40" r="30" fill="#DDF7E8"/><circle cx="40" cy="40" r="19" fill="none" stroke="#26A96B" stroke-width="7"/><circle cx="40" cy="40" r="7" fill="#26A96B"/><path d="M55 24 68 11M60 12h8v8" stroke="#173B78" stroke-width="5" stroke-linecap="round" stroke-linejoin="round"/></g></symbol>
<symbol id="progress" viewBox="0 0 80 80"><g filter="url(#iconShadow)"><circle cx="40" cy="40" r="31" fill="#EEE8FF"/><rect x="20" y="44" width="9" height="19" rx="3" fill="#9363E8"/><rect x="35.5" y="33" width="9" height="30" rx="3" fill="#7B4DE4"/><rect x="51" y="19" width="9" height="44" rx="3" fill="#5D35C4"/><path d="M54 11l2 5 6 .5-4.5 3.7 1.5 5.8-5-3-5 3 1.5-5.8L46 16.5l6-.5Z" fill="#A782F2"/></g></symbol>
<symbol id="trophy" viewBox="0 0 80 80"><g filter="url(#iconShadow)"><circle cx="40" cy="40" r="31" fill="#FFF1CF"/><path d="M29 19h22v13c0 11-5 17-11 20-7-3-11-9-11-20Z" fill="url(#gGold)"/><path d="M29 25h-8c0 9 4 13 10 15M51 25h8c0 9-4 13-10 15" fill="none" stroke="#E69A00" stroke-width="4"/><rect x="36" y="52" width="8" height="7" rx="2" fill="#D78B00"/><rect x="30" y="59" width="20" height="5" rx="2.5" fill="#B86F00"/></g></symbol>
<symbol id="shield" viewBox="0 0 80 80"><g filter="url(#iconShadow)"><circle cx="40" cy="40" r="31" fill="#FFE8EE"/><path d="M40 17l18 7v14c0 12-7 20-18 25-11-5-18-13-18-25V24Z" fill="url(#gPink)"/><path d="M31 39l6 6 12-14" fill="none" stroke="#fff" stroke-width="5" stroke-linecap="round" stroke-linejoin="round"/></g></symbol>
</svg>