<svg xmlns="http://www.w3.org/2000/svg" viewBox="0 0 1080 300" role="img" aria-labelledby="title desc"><title id="title">Test Yourself</title><desc id="desc">Open book and learning flame logo with Test Yourself wordmark</desc><defs><linearGradient id="navy" x1="0" y1="0" x2="1" y2="1"><stop stop-color="#173b78"/><stop offset="1" stop-color="#225fbe"/></linearGradient><linearGradient id="sky" x1="0" y1="0" x2="1" y2="1"><stop stop-color="#36b9ee"/><stop offset="1" stop-color="#2585e6"/></linearGradient><linearGradient id="warm" x1="0" y1="0" x2="1" y2="1"><stop stop-color="#ffd633"/><stop offset="1" stop-color="#ff9518"/></linearGradient></defs><g transform="translate(20 28)"><path d="M20 155 Q108 109 180 174 Q246 109 335 155 Q247 156 180 224 Q109 157 20 155Z" fill="url(#navy)"/><path d="M42 129 Q110 102 180 160 Q248 101 315 129 Q246 122 180 190 Q109 123 42 129Z" fill="url(#sky)"/><path d="M180 145 C154 108 156 80 181 48 C191 82 209 98 180 145Z" fill="#ff9f1c"/><path d="M180 104 C170 76 178 53 202 24 C209 55 210 75 180 104Z" fill="#ffd22e"/></g><text x="390" y="142" font-family="Arial,Helvetica,sans-serif" font-size="98" font-weight="800" fill="#163b79">Test</text><text x="600" y="142" font-family="Arial,Helvetica,sans-serif" font-size="98" font-weight="800" fill="#278fe8">Yourself</text><line x1="395" y1="192" x2="455" y2="192" stroke="#73bcf1" stroke-width="5"/><text x="480" y="208" font-family="Arial,Helvetica,sans-serif" font-size="36" fill="#34445f">Learn</text><circle cx="598" cy="196" r="9" fill="#ff9c1a"/><text x="625" y="208" font-family="Arial,Helvetica,sans-serif" font-size="36" fill="#34445f">Practise</text><circle cx="785" cy="196" r="9" fill="#27b86a"/><text x="812" y="208" font-family="Arial,Helvetica,sans-serif" font-size="36" fill="#34445f">Improve</text></svg>